<?xml version="1.0" encoding="utf-8"?>
<!-- Generator: Adobe Illustrator 22.0.1, SVG Export Plug-In . SVG Version: 6.00 Build 0)  -->
<svg version="1.1" xmlns="http://www.w3.org/2000/svg" xmlns:xlink="http://www.w3.org/1999/xlink" x="0px" y="0px"
	 viewBox="0 0 1920 621" style="enable-background:new 0 0 1920 621;" xml:space="preserve">
<style type="text/css">
	.st0{fill:#FFFFFF;}
	.st1{fill:#2F3436;}
	.st2{fill:none;stroke:#2F3436;stroke-width:2;stroke-linejoin:round;stroke-miterlimit:10;}
	.st3{fill:none;stroke:#2F3436;stroke-width:2;stroke-linecap:round;stroke-linejoin:round;stroke-miterlimit:10;}
</style>
<g id="Capa_1">
	<rect y="-1" class="st0" width="1920" height="621"/>
	<polygon class="st1" points="1920,621.1 1920,0 0,443 0,621.1 	"/>
	<g>
		<circle class="st2" cx="981.6" cy="295.8" r="12"/>
		<rect x="1000.1" y="284.9" transform="matrix(0.9731 -0.2302 0.2302 0.9731 -39.136 238.393)" class="st2" width="4" height="4"/>
		<path class="st2" d="M1013.9,310.8l2.1,8.8l8.6,5.3c1.9,1.2,2.5,3.6,1.3,5.5l-1.6,2.5l-18-11.1l-7.6-32.1l9.7-2.3l0.9,3.9"/>
		<path class="st2" d="M1010.1,311.7l5.8-1.4c1.1-0.3,1.7-1.3,1.5-2.4l-3.7-15.6c-0.3-1.1-1.3-1.7-2.4-1.5l-5.8,1.4L1010.1,311.7z"
			/>
		<path class="st2" d="M1015.1,315.7c2.2-0.5,4.3,0.8,4.8,3c0.3,1.1,0,2.1-0.5,3"/>
		<path class="st3" d="M1001.7,302.4c-2.6,10.9-12.1,2.4-12.1,2.4l14.5,20.7l-29.2,6.9l3.7-24.9L968,324.8"/>
		<path class="st2" d="M987.9,296.4c0.7,2.8-0.7,6.3-4.5,7.2s-6.6-1.7-7.2-4.5L987.9,296.4z"/>
		<path class="st2" d="M968.9,289.6c-0.4-1.6-2-2.6-3.6-2.2s-5.8,1.4-5.8,1.4s4.3,5.1,7.2,4.5C968.2,292.8,969.2,291.2,968.9,289.6z
			"/>
		<path class="st2" d="M990.3,284.5c-0.4-1.6,0.6-3.2,2.2-3.6c1.6-0.4,5.8-1.4,5.8-1.4s-1.5,6.5-4.5,7.2
			C992.3,287.2,990.7,286.2,990.3,284.5z"/>
		<path class="st3" d="M987.5,329.4l2.3,9.7c0.3,1.1-0.4,2.2-1.5,2.4c-1.1,0.2-2.2-0.4-2.4-1.5l-2.3-9.7"/>
		<path class="st3" d="M995.3,327.5l2.3,9.7c0.3,1.1-0.4,2.2-1.5,2.4c-1.1,0.2-2.2-0.4-2.4-1.5l-2.3-9.7"/>
		<circle class="st3" cx="976.1" cy="294.1" r="1"/>
		<circle class="st3" cx="985.8" cy="291.8" r="1"/>
		<line class="st2" x1="1006.3" y1="321.9" x2="1016" y2="319.6"/>
		<line class="st2" x1="1006.4" y1="296.2" x2="1014.2" y2="294.3"/>
		<line class="st2" x1="1007.3" y1="300" x2="1015.1" y2="298.2"/>
		<line class="st2" x1="1008.2" y1="303.9" x2="1016" y2="302.1"/>
		<line class="st2" x1="1009.1" y1="307.8" x2="1016.9" y2="306"/>
	</g>
</g>
<g id="Capa_2">
</g>
</svg>
