<?xml version="1.0" encoding="utf-8"?>
<!-- Generator: Adobe Illustrator 22.0.1, SVG Export Plug-In . SVG Version: 6.00 Build 0)  -->
<svg version="1.1" id="Capa_1" xmlns="http://www.w3.org/2000/svg" xmlns:xlink="http://www.w3.org/1999/xlink" x="0px" y="0px"
	 viewBox="0 0 100 100" style="enable-background:new 0 0 100 100;" xml:space="preserve">
<style type="text/css">
	.st0{fill:#3F6BA4;}
</style>
<g>
	<path class="st0" d="M46.2,86.3c0,0-10.8-5.7-16.2-34.8c-0.8-4.4-1.1-7.7-1.1-7.7s6.3,10.6,15.8,16.7c10.1,6.5,13,5,13,5L46.2,86.3
		z"/>
	<path class="st0" d="M46.2,86.3c0,0,16.6-26.4,15.5-57.6c-0.2-5.9-1.9-13.5-1.9-13.5s6.4,7.2,9.2,18.8
		C76.7,67.9,46.2,86.3,46.2,86.3z"/>
</g>
<g>
	<path class="st0" d="M100,100H0V0h100V100z M2.9,97.1h94.2V2.9H2.9V97.1z"/>
</g>
</svg>
