<?xml version="1.0" encoding="utf-8"?>
<!-- Generator: Adobe Illustrator 22.0.1, SVG Export Plug-In . SVG Version: 6.00 Build 0)  -->
<svg version="1.1" id="Capa_1" xmlns="http://www.w3.org/2000/svg" xmlns:xlink="http://www.w3.org/1999/xlink" x="0px" y="0px"
	 viewBox="0 0 300 150" style="enable-background:new 0 0 300 150;" xml:space="preserve">
<style type="text/css">
	.st0{fill:#F7F7F8;}
</style>
<g>
	<path class="st0" d="M100.6,123.6c-0.5,1.4-1.3,2.5-2.2,3.5c-0.9,1-2,1.8-3.2,2.4c-1.2,0.6-2.5,0.9-3.9,0.9h-4.9
		c-1.9,0-3.4-0.5-4.4-1.4c-1-0.9-1.5-2.1-1.5-3.4v-37h6v37.7c1.1,0.1,2.4,0.1,3.7,0c1.3-0.1,2.5-0.5,3.6-1.2
		c0.8-0.7,1.3-1.4,1.5-2.3c0.2-0.8,0.3-1.7,0.3-2.8V88.6h5.8v30.7C101.4,120.8,101.1,122.3,100.6,123.6z"/>
	<path class="st0" d="M110,116.1v10.6c1,0.1,2.1,0.1,3.3,0.1c1.2-0.1,2.2-0.4,3.1-1.1c0.8-0.6,1.3-1.2,1.6-1.7
		c0.3-0.6,0.4-1.4,0.4-2.4h4.8c-0.1,1.2-0.4,2.4-0.9,3.5c-0.5,1.1-1.1,2-1.9,2.8c-0.8,0.8-1.7,1.4-2.8,1.9c-1,0.5-2.2,0.7-3.3,0.7
		H110c-1.7,0-3-0.4-3.9-1.2c-0.9-0.8-1.3-1.8-1.3-3.1v-14c0-1.4,0.2-2.7,0.7-3.9c0.5-1.2,1.1-2.2,1.9-3.2c0.8-0.9,1.7-1.6,2.8-2.1
		c1-0.5,2.2-0.8,3.4-0.8h4.6c1.7,0,2.9,0.5,3.8,1.4c0.8,0.9,1.2,2,1.3,3.2v9.4H110z M118.2,105.8c-0.9,0-1.6,0-2.2,0
		c-0.6,0-1.2,0-1.7,0.1c-0.5,0.1-1,0.2-1.4,0.3c-0.4,0.2-0.9,0.5-1.3,0.8c-0.7,0.5-1.1,1.1-1.3,1.9c-0.2,0.8-0.3,1.6-0.3,2.5v1.2
		h8.2V105.8z"/>
	<path class="st0" d="M138.3,105.8c-0.6,0-1.1,0-1.6,0.1c-0.5,0.1-1,0.2-1.4,0.3c-0.4,0.2-0.9,0.5-1.3,0.8c-0.7,0.5-1.1,1.1-1.3,1.9
		c-0.2,0.8-0.3,1.6-0.3,2.5v19.1l-5.3-0.1v-18.3c0-1.4,0.2-2.7,0.7-3.9c0.5-1.2,1.1-2.2,1.9-3.2c0.8-0.9,1.7-1.6,2.8-2.1
		c1.1-0.5,2.2-0.8,3.4-0.8h4.6v3.6C139.6,105.8,138.9,105.8,138.3,105.8z"/>
	<path class="st0" d="M158.2,98.4v-5h5.3v5H158.2z M158.2,130.4v-28.2h5.3v28.2H158.2z"/>
	<path class="st0" d="M180.6,111.2l-0.1-5.4c-0.9,0-1.6,0-2.2,0c-0.6,0-1.1,0-1.6,0.1c-0.5,0.1-1,0.2-1.4,0.3
		c-0.4,0.2-0.9,0.5-1.3,0.8c-0.7,0.5-1.1,1.1-1.3,1.9c-0.2,0.8-0.3,1.6-0.3,2.5v15.3c1,0.1,2.1,0.1,3.3,0.1c1.2-0.1,2.2-0.4,3.2-1.1
		c0.8-0.6,1.3-1.2,1.6-1.7c0.3-0.6,0.4-1.4,0.4-2.4h4.8c-0.1,1.2-0.4,2.4-0.9,3.5c-0.5,1.1-1.2,2-1.9,2.8c-0.8,0.8-1.7,1.4-2.7,1.9
		c-1,0.5-2.2,0.7-3.4,0.7h-4.3c-1.7,0-3-0.4-3.9-1.2c-0.9-0.8-1.3-1.8-1.3-3.1v-14c0-1.4,0.2-2.7,0.7-3.9c0.5-1.2,1.1-2.2,1.9-3.2
		c0.8-0.9,1.8-1.6,2.8-2.1c1.1-0.5,2.2-0.8,3.4-0.8h4.6c1.7,0,2.9,0.5,3.8,1.4c0.8,0.9,1.2,2,1.3,3.2l0.1,4.5H180.6z"/>
	<path class="st0" d="M202,130.4v-1.8c-0.3,0.2-0.7,0.3-1,0.5c-0.4,0.2-0.8,0.4-1.4,0.6c-0.6,0.2-1.3,0.4-2.2,0.5
		c-0.9,0.1-2.1,0.2-3.5,0.2c-1.7,0-3-0.4-3.9-1.2c-0.9-0.8-1.3-1.8-1.3-3.1v-14c0-1.4,0.2-2.7,0.7-3.9c0.5-1.2,1.1-2.2,1.9-3.2
		c0.8-0.9,1.8-1.6,2.8-2.1c1.1-0.5,2.2-0.8,3.4-0.8h4.6c1.7,0,3,0.5,3.8,1.4c0.8,0.9,1.2,2,1.2,3.2v23.7H202z M202.1,105.8
		c-0.9,0-1.6,0-2.2,0c-0.6,0-1.1,0-1.6,0.1c-0.5,0.1-1,0.2-1.4,0.3c-0.4,0.2-0.9,0.5-1.3,0.8c-0.7,0.5-1.1,1.1-1.3,1.9
		c-0.2,0.8-0.3,1.6-0.3,2.5v15.3c1,0.1,2.1,0.1,3.3,0.1c1.2-0.1,2.2-0.4,3.2-1.1c0.8-0.6,1.3-1.2,1.5-1.9c0.2-0.7,0.3-1.5,0.3-2.5
		V105.8z"/>
	<path class="st0" d="M249.3,119.3c0,1.5-0.3,3-0.8,4.3c-0.5,1.4-1.2,2.5-2.2,3.5c-0.9,1-2,1.8-3.2,2.4c-1.2,0.6-2.5,0.9-3.9,0.9
		h-4.9c-1.9,0-3.4-0.5-4.4-1.4c-1-0.9-1.5-2.1-1.5-3.4v-8.2h6v9c1.1,0.1,2.3,0.1,3.7,0c1.3-0.1,2.5-0.5,3.6-1.2
		c0.8-0.7,1.3-1.4,1.5-2.3c0.2-0.8,0.3-1.7,0.3-2.8v-14.1h-15.2v-6.3c0-1.5,0.3-3,0.8-4.3c0.5-1.4,1.2-2.5,2.2-3.5
		c0.9-1,2-1.8,3.2-2.4c1.2-0.6,2.5-0.9,3.9-0.9h5.1c1.9,0,3.4,0.5,4.3,1.5c0.9,1,1.4,2.2,1.4,3.6l0.1,5.1h-5.8v-6.2
		c-0.9,0-1.7,0-2.4,0c-0.7,0-1.3,0-1.8,0.1c-0.5,0.1-1,0.2-1.5,0.4c-0.5,0.2-1,0.5-1.5,0.9c-0.7,0.6-1.2,1.3-1.5,2.2
		c-0.3,0.8-0.4,1.8-0.4,2.8v3.1h14.9V119.3z"/>
	<path class="st0" d="M270.5,124.4c-0.5,1.2-1.1,2.2-1.9,3.1c-0.8,0.9-1.8,1.6-2.9,2.1c-1.1,0.5-2.3,0.8-3.6,0.8h-4.3
		c-1.7,0-3-0.4-3.9-1.2c-0.9-0.8-1.3-1.8-1.3-3.1v-14c0-1.4,0.2-2.7,0.7-3.9c0.5-1.2,1.1-2.2,1.9-3.2c0.8-0.9,1.7-1.6,2.8-2.1
		c1.1-0.5,2.2-0.8,3.4-0.8h4.6c1.7,0,3,0.5,3.8,1.4c0.8,0.9,1.2,2,1.2,3.2v13.8C271.2,121.9,271,123.2,270.5,124.4z M266.1,105.8
		c-0.9,0-1.6,0-2.2,0c-0.6,0-1.1,0-1.6,0.1c-0.5,0.1-1,0.2-1.4,0.3c-0.4,0.2-0.9,0.5-1.3,0.8c-0.7,0.5-1.1,1.1-1.3,1.9
		c-0.2,0.8-0.3,1.6-0.3,2.5v15.3c1,0.1,2.1,0.1,3.3,0.1c1.2-0.1,2.2-0.4,3.1-1.1c0.8-0.6,1.3-1.2,1.5-1.9c0.2-0.7,0.3-1.5,0.3-2.5
		V105.8z"/>
	<path class="st0" d="M286.2,92.1c-0.6,0-1.2,0-1.7,0.1c-0.5,0.1-1,0.2-1.4,0.3c-0.4,0.2-0.9,0.5-1.3,0.8c-0.7,0.5-1.1,1.2-1.3,1.9
		c-0.2,0.7-0.3,1.5-0.3,2.4v4.5h5.8v3.6h-5.8v24.7l-5.3-0.1V98.5c0-1.3,0.2-2.6,0.7-3.8c0.5-1.2,1.1-2.2,1.9-3.1
		c0.8-0.9,1.7-1.6,2.8-2.1c1.1-0.5,2.2-0.8,3.4-0.8h4.6v3.5C287.5,92.2,286.8,92.2,286.2,92.1z"/>
	<path class="st0" d="M299.9,130.4h-5.8c-1.7,0-3-0.4-3.9-1.2c-0.9-0.8-1.3-1.8-1.3-3.1V88.7l5.3-0.1v13.5h5.8v3.5h-5.8v21.2
		l5.8,0.1L299.9,130.4z"/>
	<path class="st0" d="M30.7,129.9c0,0-19.2-10-28.7-61.7c-1.4-7.8-2-13.6-2-13.6s11.2,18.8,28,29.6c18,11.6,23.2,8.9,23.2,8.9
		L30.7,129.9z"/>
	<path class="st0" d="M30.7,130c0,0,29.4-46.8,27.5-102.2c-0.4-10.4-3.4-24-3.4-24s11.4,12.7,16.3,33.4C84.9,97.3,30.7,130,30.7,130
		z"/>
	<g>
		<path class="st0" d="M83.4,141.4h-2.5v-0.9H87v0.9h-2.5v7.5h-1.1V141.4z"/>
		<path class="st0" d="M92.2,140.5H97v0.9h-3.8v2.6h3.2v0.9h-3.2v3h3.9v0.9h-4.9V140.5z"/>
		<path class="st0" d="M102.2,144.7c0-2.7,1.6-4.3,3.7-4.3c1,0,1.8,0.5,2.3,1l-0.6,0.7c-0.4-0.5-1-0.8-1.7-0.8
			c-1.6,0-2.6,1.3-2.6,3.4c0,2.1,1,3.4,2.6,3.4c0.8,0,1.4-0.3,1.9-0.9l0.6,0.7c-0.7,0.8-1.5,1.2-2.6,1.2
			C103.8,149,102.2,147.4,102.2,144.7z"/>
		<path class="st0" d="M113.7,140.5h1.1l3,5.3l0.9,1.7h0.1c-0.1-0.8-0.1-1.8-0.1-2.7v-4.3h1v8.4h-1.1l-3-5.3l-0.9-1.7h-0.1
			c0.1,0.8,0.1,1.7,0.1,2.6v4.4h-1V140.5z"/>
		<path class="st0" d="M125.3,144.6c0-2.7,1.5-4.3,3.6-4.3c2.1,0,3.6,1.6,3.6,4.3c0,2.7-1.5,4.4-3.6,4.4
			C126.7,149,125.3,147.3,125.3,144.6z M131.3,144.6c0-2.1-1-3.4-2.5-3.4c-1.5,0-2.5,1.3-2.5,3.4c0,2.1,1,3.4,2.5,3.4
			C130.3,148,131.3,146.7,131.3,144.6z"/>
		<path class="st0" d="M138,140.5h1.1v7.5h3.6v0.9H138V140.5z"/>
		<path class="st0" d="M147.1,144.6c0-2.7,1.5-4.3,3.6-4.3c2.1,0,3.6,1.6,3.6,4.3c0,2.7-1.5,4.4-3.6,4.4
			C148.6,149,147.1,147.3,147.1,144.6z M153.1,144.6c0-2.1-1-3.4-2.5-3.4c-1.5,0-2.5,1.3-2.5,3.4c0,2.1,1,3.4,2.5,3.4
			C152.2,148,153.1,146.7,153.1,144.6z"/>
		<path class="st0" d="M159.3,144.7c0-2.7,1.6-4.3,3.8-4.3c1.2,0,1.9,0.5,2.4,1L165,142c-0.4-0.4-1-0.8-1.8-0.8
			c-1.7,0-2.8,1.3-2.8,3.4c0,2.1,1,3.4,2.8,3.4c0.6,0,1.2-0.2,1.5-0.5v-2.2h-1.8v-0.9h2.7v3.5c-0.5,0.6-1.5,1-2.6,1
			C160.9,149,159.3,147.4,159.3,144.7z"/>
		<path class="st0" d="M171.3,139.4l1.8-1.6l0.6,0.7l-1.9,1.5L171.3,139.4z M171.4,140.5h1.1v8.4h-1.1V140.5z"/>
		<path class="st0" d="M180.2,140.5h1.2l2.8,8.4h-1.1l-1.5-4.7c-0.3-0.9-0.6-1.9-0.8-2.8h-0.1c-0.3,1-0.5,1.9-0.8,2.8l-1.5,4.7h-1.1
			L180.2,140.5z M178.9,145.4h3.8v0.8h-3.8V145.4z"/>
		<path class="st0" d="M188.6,147.7l0.6-0.7c0.6,0.6,1.4,1,2.3,1c1.1,0,1.7-0.5,1.7-1.4c0-0.9-0.6-1.1-1.4-1.5l-1.2-0.5
			c-0.8-0.3-1.7-0.9-1.7-2.2c0-1.3,1.1-2.2,2.6-2.2c1,0,1.9,0.4,2.5,1l-0.6,0.7c-0.5-0.5-1.1-0.8-1.9-0.8c-0.9,0-1.6,0.5-1.6,1.2
			c0,0.8,0.7,1.1,1.4,1.4l1.2,0.5c1,0.4,1.7,1,1.7,2.2c0,1.3-1.1,2.4-2.8,2.4C190.4,149,189.3,148.5,188.6,147.7z"/>
		<path class="st0" d="M207.4,145.6l-2.5-5.1h1.1l1.1,2.4c0.3,0.6,0.5,1.2,0.8,1.8h0.1c0.3-0.6,0.6-1.2,0.8-1.8l1.1-2.4h1.1
			l-2.5,5.1v3.2h-1.1V145.6z"/>
		<path class="st0" d="M221.5,147.7l0.6-0.7c0.6,0.6,1.4,1,2.3,1c1.1,0,1.7-0.5,1.7-1.4c0-0.9-0.6-1.1-1.4-1.5l-1.2-0.5
			c-0.8-0.3-1.7-0.9-1.7-2.2c0-1.3,1.1-2.2,2.6-2.2c1,0,1.9,0.4,2.5,1l-0.6,0.7c-0.5-0.5-1.1-0.8-1.9-0.8c-0.9,0-1.6,0.5-1.6,1.2
			c0,0.8,0.7,1.1,1.4,1.4l1.2,0.5c1,0.4,1.7,1,1.7,2.2c0,1.3-1.1,2.4-2.8,2.4C223.2,149,222.2,148.5,221.5,147.7z"/>
		<path class="st0" d="M232.6,140.5h1.1v8.4h-1.1V140.5z"/>
		<path class="st0" d="M239.2,147.7l0.6-0.7c0.6,0.6,1.4,1,2.3,1c1.1,0,1.7-0.5,1.7-1.4c0-0.9-0.6-1.1-1.4-1.5l-1.2-0.5
			c-0.8-0.3-1.7-0.9-1.7-2.2c0-1.3,1.1-2.2,2.6-2.2c1,0,1.9,0.4,2.5,1l-0.6,0.7c-0.5-0.5-1.1-0.8-1.9-0.8c-0.9,0-1.6,0.5-1.6,1.2
			c0,0.8,0.7,1.1,1.4,1.4l1.2,0.5c1,0.4,1.7,1,1.7,2.2c0,1.3-1.1,2.4-2.8,2.4C240.9,149,239.9,148.5,239.2,147.7z"/>
		<path class="st0" d="M251.8,141.4h-2.5v-0.9h6.1v0.9h-2.5v7.5h-1.1V141.4z"/>
		<path class="st0" d="M260.7,140.5h4.8v0.9h-3.8v2.6h3.2v0.9h-3.2v3h3.9v0.9h-4.9V140.5z"/>
		<path class="st0" d="M271.1,140.5h1.3l1.6,4.5c0.2,0.6,0.4,1.2,0.6,1.7h0.1c0.2-0.6,0.4-1.2,0.6-1.7l1.6-4.5h1.3v8.4h-1v-4.6
			c0-0.7,0.1-1.7,0.1-2.5h-0.1l-0.7,1.9L275,148h-0.7l-1.6-4.3l-0.7-1.9H272c0.1,0.7,0.1,1.7,0.1,2.5v4.6h-1V140.5z"/>
		<path class="st0" d="M285.9,140.5h1.2l2.8,8.4h-1.1l-1.5-4.7c-0.3-0.9-0.6-1.9-0.8-2.8h-0.1c-0.3,1-0.5,1.9-0.8,2.8l-1.5,4.7H283
			L285.9,140.5z M284.5,145.4h3.8v0.8h-3.8V145.4z"/>
		<path class="st0" d="M294.2,147.7l0.6-0.7c0.6,0.6,1.4,1,2.3,1c1.1,0,1.7-0.5,1.7-1.4c0-0.9-0.6-1.1-1.4-1.5l-1.2-0.5
			c-0.8-0.3-1.7-0.9-1.7-2.2c0-1.3,1.1-2.2,2.6-2.2c1,0,1.9,0.4,2.5,1l-0.6,0.7c-0.5-0.5-1.1-0.8-1.9-0.8c-0.9,0-1.6,0.5-1.6,1.2
			c0,0.8,0.7,1.1,1.4,1.4l1.2,0.5c1,0.4,1.7,1,1.7,2.2c0,1.3-1.1,2.4-2.8,2.4C296,149,295,148.5,294.2,147.7z"/>
	</g>
	<polygon class="st0" points="219.7,68.8 219.7,130.4 225,130.4 225,67.6 	"/>
	<polygon class="st0" points="210.9,70.9 210.9,130.4 216.1,130.4 216.1,69.7 	"/>
	<path class="st0" d="M149.2,85.5l-5.3,1.2v39.3c0,1.2,0.4,2.3,1.3,3.1c0.9,0.8,2.2,1.2,3.9,1.2h5.8l0.1-3.5l-5.8-0.1v-21.2h5.8
		v-3.5h-5.8V85.5z"/>
</g>
</svg>
